<svg width="280" height="70" viewBox="0 0 280 70" fill="none" xmlns="http://www.w3.org/2000/svg">
<path d="M40.4124 0.0803369C45.128 -0.335764 50.129 0.911664 54.4502 2.73182C55.6842 3.25173 57.5545 4.27279 58.7476 4.59942C60.2559 4.85624 61.6151 4.58241 63.1623 4.77839C65.9637 5.13274 68.371 7.43973 69.0199 10.1799C69.5208 12.2953 68.9816 15.6126 68.5236 17.7253C68.2442 19.0148 67.7373 20.3133 67.5169 21.6842L67.4918 21.8471C68.2426 23.3084 68.5615 24.3634 69.7625 25.643C70.9964 26.9585 72.706 28.1782 73.7988 29.5733C75.6644 31.712 76.8306 37.0713 75.2793 39.6102C73.3486 42.7709 73.1234 42.7153 72.6156 46.6198C72.0793 46.4426 71.9266 46.3907 71.4211 46.1061C69.2524 48.9294 71.373 52.4945 71.1556 55.7081C70.6555 63.0979 62.4477 66.2925 56.0299 66C51.372 65.788 48.8016 64.2488 45.7567 60.8723C44.8242 60.7426 43.4568 60.7489 42.498 60.773C37.3875 60.9162 32.5394 63.0782 29.0075 66.7911C29.1442 64.9288 30.0831 62.7883 30.9594 61.141C23.2481 63.6967 20.5303 69.2799 11.5993 70C7.07243 69.8022 2.32481 67.9096 0.600809 63.3549C-0.291133 60.9441 -0.186482 58.2757 0.891525 55.9428C4.86001 47.2081 17.5414 49.2734 13.2275 57.4846C12.4154 56.1128 10.8289 54.9012 9.17074 55.532C6.15731 56.6793 5.6741 61.2342 8.86375 62.5226C10.2321 63.115 11.6143 62.8349 12.9298 62.247C15.7253 60.9969 18.3733 58.6944 19.6449 55.8622C20.2282 54.5628 20.6114 53.3163 20.8525 51.9176C20.9284 51.4773 21.0227 51.0639 21.1993 50.6514C20.4606 50.1753 19.0904 49.5525 18.2254 49.0639C15.8122 47.701 12.3678 44.7891 11.0659 42.3301C12.4949 42.1753 13.7288 41.7637 15.1211 41.6026C14.9282 40.7766 14.6601 39.9489 14.3875 39.1471C13.9332 39.1337 9.73163 38.9941 9.69464 38.6791C9.54208 37.3779 10.1372 35.3841 10.5985 34.144C11.3004 32.2558 12.4427 29.9748 14.3287 29.037C15.1068 28.6594 15.5372 28.9091 16.2319 29.2142C15.4905 22.4454 13.583 13.2391 17.8542 7.1541C19.2385 5.18182 22.5246 4.25205 24.7971 4.55273C25.6151 4.66101 26.7309 4.91156 27.5657 4.76661C28.4238 4.51873 29.5451 3.45384 30.3629 3.04578C33.3652 1.54956 37.0961 0.378188 40.4115 0.0810733L40.4124 0.0803369Z" fill="#FD0358"/>
<path d="M28.3861 6.83985L28.4967 6.78527C29.4684 6.29756 30.2634 5.46802 31.1809 4.99553C38.9434 1.00534 47.8631 1.4859 55.4768 5.55928C56.2086 5.89129 56.8721 6.28233 57.6355 6.54811C59.8325 7.31322 63.0181 6.04611 65.0092 7.44387C70.7427 11.4689 63.8002 18.7262 66.0594 24.0525C66.8512 25.9201 67.8163 27.2041 69.3714 28.5019C70.0879 29.1077 70.9342 29.65 71.5432 30.3713C73.2805 32.4268 74.3997 35.3683 73.7338 38.0636C73.5412 38.8439 72.2924 38.9334 71.7765 39.4121C71.2806 39.8721 71.0635 40.5728 70.661 41.1079C69.4067 42.4565 68.2422 43.2413 67.5454 45.0291C66.4166 47.9249 68.1162 50.036 68.6917 52.8027C70.6843 62.342 59.6159 65.7774 52.3433 63.166C49.248 62.0546 47.1101 59.5864 45.5294 56.7838C43.9954 54.0643 42.2841 52.3668 39.299 51.2481C38.706 51.0261 37.3011 50.7228 36.843 50.4015C36.1543 50.2762 35.202 50.4391 34.2963 50.2628L34.1418 50.185C33.7416 49.1514 34.448 45.1432 34.63 43.851C35.2719 39.2951 38.3864 35.006 42.1403 32.3879C40.4628 32.6966 39.5971 32.736 37.9015 32.2957C37.1219 32.0935 35.4881 31.196 35.1452 30.5606C35.324 30.353 35.4124 30.2519 35.5357 30.0004C34.7396 28.838 34.3416 27.4643 34.0604 26.0997C33.9849 25.1216 33.9157 24.1033 33.9528 23.1315C34.317 13.5681 43.3143 11.2487 50.5389 15.9251C51.4769 16.5327 52.4502 17.2987 53.3764 17.9161C54.0621 17.0445 55.0644 15.5599 55.9012 14.9262L56.9074 15.8542C57.1018 15.6904 57.2986 15.5294 57.4977 15.3719C58.5822 14.5182 59.5301 14.4269 60.8362 14.5791C60.6425 12.0108 59.3424 10.22 57.27 8.85818C53.7856 6.54047 49.9068 5.20904 45.7201 5.02009C40.4593 4.78206 32.3589 4.60308 29.0615 9.53999C27.5952 9.33954 26.218 9.11224 24.7397 9.32343C27.3973 11.0433 28.6103 12.6657 29.4894 15.863C29.5455 16.0679 29.5904 16.3802 29.5906 16.5869C29.8743 18.2747 29.4234 20.203 28.9438 21.8202C28.936 23.3182 27.7633 25.4237 26.9963 26.7294C25.9758 28.4673 25.2702 30.5175 23.4886 31.5699C21.6805 31.075 20.5603 30.4272 19.7211 28.6643C17.5417 24.0853 16.5967 16.7151 17.8946 11.8389C19.4749 5.90158 23.6012 6.61171 28.3861 6.83985Z" fill="black"/>
<path d="M34.0599 26.0976C33.9844 25.1195 33.9152 24.1012 33.9523 23.1294C34.3165 13.566 43.3138 11.2466 50.5384 15.9229C51.4764 16.5306 52.4497 17.2965 53.3759 17.914C54.0616 17.0424 55.0639 15.5578 55.9007 14.9241L56.9069 15.8521C57.1013 15.6883 57.2981 15.5272 57.4972 15.3698C58.5817 14.5161 59.5296 14.4248 60.8357 14.5769C62.033 14.9492 62.5065 15.1201 63.2306 16.236C62.8303 16.3917 62.3747 16.0221 62.0117 16.0418C60.4969 16.1241 59.0487 16.9671 58.1248 18.1635C57.3609 19.1362 57.0471 20.3899 57.2622 21.6097C57.2967 21.8056 57.3412 21.9766 57.3954 22.1654C57.3228 22.5833 57.2609 22.9591 57.2099 23.3833C56.5145 23.1784 55.8797 22.9716 55.148 22.9538C53.4739 22.9126 52.0157 24.0509 51.5514 25.6554C51.5305 25.7279 51.5101 25.8012 51.4903 25.8737C54.5069 22.6004 56.7331 24.7408 59.4538 26.7274C60.53 25.1435 60.8336 24.9708 62.7678 24.756C63.5532 25.0853 65.0079 26.3113 64.8725 27.2429C64.0577 28.0384 62.9598 27.9221 62.6865 29.2518C62.5922 29.7109 62.2763 30.408 62.5154 30.8742C62.687 30.9011 62.6932 30.9395 62.8882 30.7597C63.6584 30.0518 64.4756 29.6993 65.3484 29.1659C68.6647 30.518 70.2242 31.8076 71.3283 35.2457C66.9014 30.3452 57.6345 35.6197 52.78 37.5061C51.9546 37.1088 49.2851 38.1835 47.8337 38.2909C44.6065 37.0139 47.6219 33.9553 47.3316 33.3987C46.8327 33.2788 46.521 33.5409 46.162 33.3852C46.3629 33.1803 46.5492 33.0425 46.7715 32.8635C46.6463 32.7221 46.6047 32.6353 46.5024 32.4716C45.3838 33.3897 44.2693 34.0063 43.1252 34.8483C39.9865 37.158 37.765 39.8836 37.6334 43.9276C38.4962 42.3697 39.0025 42.1459 39.7933 40.9603C39.7989 42.7366 40.0774 45.4793 41.4296 46.7151C42.6855 47.8623 44.28 48.614 45.5417 49.8453C43.7407 50.2686 40.9304 47.8417 36.83 49.0722C35.9789 49.3281 35.0133 49.7335 34.2954 50.2605L34.1409 50.1827C33.7408 49.1491 34.4471 45.141 34.6291 43.8487C35.271 39.2929 38.3856 35.0038 42.1394 32.3856C40.462 32.6944 39.5962 32.7337 37.9006 32.2935C37.1211 32.0912 35.4872 31.1937 35.1443 30.5583C35.3231 30.3507 35.4115 30.2496 35.5348 29.9981C34.7387 28.8357 34.3411 27.4622 34.0599 26.0976Z" fill="white"/>
<path d="M34.0599 26.0976C34.2564 25.8998 35.1616 22.7918 35.4072 22.22C36.6032 19.4343 38.8258 17.2239 41.9953 17.2096C45.1561 17.1953 47.0176 19.5595 49.528 21.0091C50.267 21.4368 50.6804 21.8762 51.2821 22.4847C51.1143 22.6691 51.043 22.8615 50.9356 23.087C50.3659 24.6217 49.3542 26.3649 50.2409 27.9558C49.9168 28.9393 45.447 30.7227 44.4934 31.2595C44.1725 31.4403 42.5118 32.2612 42.1394 32.3856C40.462 32.6944 39.5962 32.7337 37.9006 32.2935C37.1211 32.0912 35.4872 31.1937 35.1443 30.5583C35.3231 30.3507 35.4115 30.2496 35.5348 29.9981C34.7387 28.8357 34.3411 27.4622 34.0599 26.0976Z" fill="black"/>
<path d="M34.0599 26.0976C34.2564 25.8998 35.1616 22.7918 35.4072 22.22C36.6032 19.4343 38.8258 17.2239 41.9953 17.2096C45.1561 17.1953 47.0176 19.5595 49.528 21.0091C50.267 21.4368 50.6804 21.8762 51.2821 22.4847C51.1143 22.6691 51.043 22.8615 50.9356 23.087C50.4778 22.8337 50.0128 22.5769 49.5606 22.329C46.7178 20.7773 43.0121 17.5979 39.6169 19.6077C36.5204 21.4413 36.2035 25.9639 36.8346 29.1281C37.1169 30.5437 36.9177 30.6764 35.5348 29.9981C34.7387 28.8357 34.3411 27.4622 34.0599 26.0976Z" fill="#DACFCA"/>
<path d="M41.592 21.3651C42.6345 21.4778 44.1641 21.9494 45.1332 22.3512C44.8196 22.5355 44.291 22.8416 44.1223 23.1432C44.2676 23.6264 45.2132 23.9181 45.2594 24.7038C45.3081 25.5316 44.4204 25.6989 43.8084 25.7947C43.4843 25.8448 42.901 25.2157 42.6595 24.9598C41.3874 26.1124 41.3864 27.1039 42.0614 28.5849C42.3944 29.0735 42.7103 29.4306 43.0954 29.878L41.4444 30.5635L41.3765 30.5232C38.5621 28.874 37.5974 22.0872 41.592 21.3651Z" fill="white"/>
<path d="M47.2688 25.2552C47.8701 25.419 48.0605 25.7778 48.0218 26.4194C47.8707 28.9268 44.6137 29.9943 42.9278 28.1868C42.722 27.7492 42.6061 27.2248 42.4794 26.7532C43.083 27.3582 43.9548 27.8414 44.8059 27.8736C46.8004 27.947 47.2234 26.9098 47.2688 25.2552Z" fill="#FD0358"/>
<path d="M61.8951 23.2654C62.0267 23.5972 61.9287 23.8075 61.6237 24.0095C60.4318 24.7992 58.8306 23.6714 59.075 22.2791C59.2034 22.0348 59.4022 21.802 59.5732 21.5823C59.5049 22.0664 59.5839 22.6317 59.8608 23.033C60.5107 23.9728 61.1272 23.8114 61.8951 23.2654Z" fill="#FD0358"/>
<path d="M46.5028 32.4739C46.9539 32.1223 47.5348 31.6391 48.0147 31.3598C47.6536 31.7858 47.2109 32.2726 46.7628 32.6046L46.7729 32.703C46.7841 32.823 46.7872 32.7755 46.7719 32.8659C46.6467 32.7245 46.6051 32.6377 46.5028 32.4739Z" fill="#76757C"/>
<path d="M54.5533 28.613C56.1887 28.511 59.4335 29.7853 60.2814 31.1911L60.1913 31.4498C59.6763 31.5706 59.6638 31.3889 59.0329 31.26L58.9559 31.2448C57.3543 31.1008 55.6183 31.2645 53.9922 31.2797C52.2238 30.2381 52.8275 29.116 54.5533 28.613Z" fill="black"/>
<path d="M34.2954 50.2605C35.0133 49.7335 35.9789 49.3281 36.83 49.0722C40.9304 47.8417 43.7407 50.2686 45.5417 49.8453C46.8639 50.631 48.802 52.4583 49.7457 53.6798C50.9467 55.2342 51.2045 56.0834 52.9324 57.2559C52.8284 57.4715 52.8306 57.3606 52.9037 57.5941C54.8477 59.5843 58.7476 58.6214 61.1002 58.1087C63.0945 57.6738 66.2136 56.4344 66.4032 54.0307C66.9004 53.5466 67.2332 52.8576 67.5734 52.2455L67.5716 52.479C67.5504 54.5623 67.0056 57.2827 65.3468 58.7331C62.9614 60.82 59.0328 61.9064 55.9066 61.8856C52.772 61.8641 50.4 59.5831 48.595 57.2402C45.3853 52.7391 42.5821 50.5664 36.8422 50.3991C36.1535 50.2738 35.2011 50.4368 34.2954 50.2605Z" fill="#DACFCA"/>
<path d="M20.0705 12.21C20.379 11.1362 20.6631 10.7523 21.5699 10.04C22.2411 9.5138 23.9384 9.15409 24.7398 9.3223C27.3973 11.0422 28.6104 12.6646 29.4894 15.8619C29.5456 16.0668 29.5905 16.3791 29.5906 16.5858C29.8744 18.2735 29.4234 20.2019 28.9438 21.8191C28.8565 20.611 28.7074 19.4951 28.156 18.1878C27.4014 16.399 24.4692 12.4035 22.1012 13.3312C21.0635 13.7375 20.9647 15.6597 20.8831 16.6727C20.7301 18.5725 20.9464 19.5962 21.8018 21.299C21.8286 19.7196 21.7892 16.6367 24.255 18.3083C26.4858 19.8206 26.3967 21.7053 26.0072 24.143C25.7967 25.462 25.0348 27.6122 24.2512 28.6997C20.4939 26.3042 19.3073 19.3663 19.4445 15.1997C19.4746 14.2842 19.8137 13.1005 20.0705 12.21Z" fill="#DACFCA"/>
<path d="M20.0705 12.21C20.379 11.1362 20.6631 10.7523 21.5699 10.04C22.2411 9.5138 23.9384 9.15409 24.7398 9.3223C27.3973 11.0422 28.6104 12.6646 29.4894 15.8619C29.5456 16.0668 29.5905 16.3791 29.5906 16.5858L29.5526 17.9988C29.1807 16.7406 29.0884 16.2556 28.2986 15.0887C26.9879 13.1522 24.6168 11.2524 22.1436 11.5513C21.524 11.6256 20.5364 12.2906 20.0705 12.21Z" fill="white"/>
<path d="M64.9544 52.4161C64.7668 52.5602 64.7582 52.5629 64.5413 52.6586C64.0634 52.6488 62.8526 51.847 62.1423 51.2045C60.9308 50.1083 59.2629 46.9467 60.3324 45.3233C60.7313 44.7175 62.0098 45.922 62.4454 46.2594C63.042 46.7211 63.9344 47.216 64.6109 47.7869C64.9072 48.0339 65.173 48.3158 65.4025 48.6263C65.7778 49.1435 66.2364 50.1073 66.0514 50.7382C65.6448 52.1253 65.5092 51.2751 65.0649 51.5516L65.0805 51.7556C64.9933 52.0563 64.9726 52.0931 64.9544 52.4161Z" fill="#FD0358"/>
<path d="M46.162 33.3865C46.521 33.5422 46.8327 33.28 47.3316 33.4C47.6219 33.9566 44.6064 37.0152 47.8337 38.2922C49.2853 38.1848 51.9548 37.1101 52.78 37.5074C50.3738 38.7298 47.7647 39.7741 44.9971 39.5262C42.39 39.2927 42.3818 37.6121 43.9133 35.8788C44.5974 35.1039 45.3139 34.0049 46.162 33.3865Z" fill="#DACFCA"/>
<path d="M64.9544 52.4161C64.9726 52.0931 64.9933 52.0563 65.0805 51.7556C65.6204 52.4644 66.0066 53.2358 66.4033 54.0322C66.2136 56.4358 63.0945 57.6752 61.1002 58.1102C58.7475 58.6229 54.8476 59.5858 52.9037 57.5956C52.8306 57.3621 52.8284 57.473 52.9325 57.2574C55.2949 57.9034 58.4683 57.4873 60.7774 56.7661C62.4469 56.2453 63.6068 55.9714 64.7509 54.5647C64.9343 53.6466 64.9574 53.3504 64.9544 52.4161Z" fill="white"/>
<path d="M57.3961 22.1665C57.3418 21.9777 57.2974 21.8068 57.2629 21.6108C57.0478 20.3911 57.3616 19.1374 58.1254 18.1646C59.0493 16.9682 60.4976 16.1252 62.0124 16.0429C62.3753 16.0232 62.8309 16.3928 63.2312 16.2371C63.5896 16.7946 63.8358 17.6832 63.7614 18.3436C63.1558 18.2989 62.1439 15.9624 59.829 17.9051C58.7225 18.8331 57.739 20.7812 57.3961 22.1665Z" fill="#DACFCA"/>
<path d="M45.6785 47.6456C46.53 47.7395 47.484 48.1494 48.3327 48.3623L48.274 48.5762C48.8919 49.0263 53.0557 49.6885 54.141 49.9597C55.2268 50.2308 56.3208 50.5763 57.3787 50.9414C58.9331 51.4792 60.3645 52.3839 61.7946 53.1884C61.0694 53.4613 60.3287 53.7011 59.5983 53.9597C57.5618 54.6604 55.6775 55.7414 53.62 56.23C51.8245 54.6407 50.8604 52.5753 49.3332 50.7855C48.3037 49.5784 46.8833 48.6739 45.6785 47.6456Z" fill="#FD0358"/>
<path d="M66.7865 34.536C67.189 34.5002 67.6175 34.5271 68.0174 34.5852C68.6967 34.6855 69.4553 34.9083 69.8666 35.5052C70.0327 35.7459 70.0941 36.0439 70.0368 36.3311C69.7809 37.5929 67.8406 38.7571 66.8623 39.3997C66.9762 38.6408 67.2128 37.7254 67.018 36.9701C66.8724 36.767 66.7287 36.6641 66.4889 36.5979C65.9133 36.4404 65.1667 36.5996 64.5865 36.6927C61.5165 37.1849 58.8917 38.3178 56.2272 39.8794C55.0611 40.6231 53.9498 41.449 53.009 42.4701C52.8134 41.526 52.514 40.6258 52.1949 39.7175C53.5947 38.5067 60.1834 35.7791 62.1969 35.2289C63.4449 34.8879 65.4519 34.6192 66.7865 34.536Z" fill="white"/>
<path d="M50.8863 39.9618C51.1263 40.0289 51.3129 40.241 51.4418 40.4566C51.8233 41.0947 51.7265 42.1757 51.5659 42.8656C51.3644 43.731 50.7899 45.0884 50.0203 45.5574L49.8863 45.5162C49.6827 45.152 49.6448 44.7386 49.5748 44.3314C49.1997 43.0079 48.3041 42.0316 47.3332 41.1064C48.5543 40.8469 49.6914 40.3188 50.8863 39.9618Z" fill="white"/>
<path d="M63.1661 9.29094C66.0956 9.0207 66.1457 15.1613 64.7134 14.9232L64.4997 14.5151C64.1826 13.8619 61.7413 10.2637 61.6379 9.84841C61.9133 9.45556 62.6942 9.37863 63.1661 9.29094Z" fill="#FD0358"/>
<path d="M60.6932 21.6956C60.4196 21.5945 60.3372 21.5515 60.0879 21.4182C59.4968 20.3765 61.1939 19.7537 61.9732 19.7985C62.3131 19.8172 62.3722 19.9515 62.5845 20.1707C62.5042 20.7372 62.8483 21.343 62.8343 22.1045C62.7286 22.4374 62.6616 22.773 62.3176 22.9046C61.9507 22.7086 61.9996 22.5108 61.6103 22.1385L61.5513 22.084C61.2494 21.8942 61.0277 21.8244 60.6932 21.6956Z" fill="white"/>
<path d="M8.41693 52.2289C9.10764 52.1967 9.84806 52.1332 10.5303 52.2746C11.5629 52.4893 12.2039 53.1471 12.7746 53.9873L11.9512 53.8692C9.91803 53.5856 8.20142 53.6562 6.51209 54.9601C5.39998 55.8183 4.73782 57.0926 4.57803 58.4814C4.4162 59.889 4.87754 61.421 5.76053 62.5199C6.87567 63.9069 8.47708 64.6282 10.2181 64.7964C14.7236 65.2322 18.866 61.8935 21.9124 58.96C22.7656 58.1385 23.5047 57.164 24.4242 56.4177C24.4545 56.3926 24.4856 56.3684 24.5163 56.3443C24.4699 56.7389 24.4173 57.1497 24.3188 57.5344C24.176 58.0919 23.3567 59.8011 23.4511 60.2029C23.711 60.2369 23.9294 60.0517 24.1434 59.9228C25.0308 59.4182 25.7281 58.7729 26.4723 58.0857C26.3129 58.3792 26.1521 58.6736 25.9753 58.9564C24.0106 62.1063 17.9864 66.7777 14.3016 67.6025C11.1601 68.3273 7.86003 67.7484 5.14893 65.9971C3.55562 64.9573 2.49119 63.3662 2.10521 61.4986C1.89286 60.4713 1.643 58.8918 2.01779 57.8877C2.15689 57.5146 2.41674 57.1826 2.61189 56.8381C2.89178 56.3432 3.1223 55.8331 3.43856 55.3571C4.55923 53.6693 6.47245 52.6281 8.41693 52.2289Z" fill="black"/>
<path d="M91 5.00072H97.0609V29.5961H91V5.00072ZM119.957 5.00072V29.5961H112.108L109.94 14.3231H109.667V29.5961H104.363V5.00072H112.571L114.381 19.6783H114.612V5.00072H119.957ZM127.239 5.00072H133.321V29.5961H127.239V5.00072ZM143.949 10.7308H140.245V5.00072H153.566V10.7308H150.031V29.5957H143.949L143.949 10.7308ZM160.489 5.00072H166.571V29.5961H160.489V5.00072ZM189.552 29.5954H183.47L182.881 25.8929H179.471L178.903 29.5954H172.758L176.967 5H185.301L189.552 29.5954ZM180.881 10.7305L180.082 20.2071H182.249L181.344 10.7305H180.881ZM207.755 29.5954H195.739V5H201.821V23.8649H207.755L207.755 29.5954ZM230.189 20.5157V29.5954H224.128V5H235.808V10.7961H230.189V15.0275H235.639V20.5152L230.189 20.5157ZM242.205 21.0667V5.00038H248.266V20.8899C248.266 21.4336 248.287 21.9551 248.33 22.4547C248.358 22.9542 248.456 23.3656 248.624 23.6889C248.793 24.0121 249.087 24.1737 249.508 24.1737C250.083 24.1737 250.42 23.8505 250.518 23.2041C250.616 22.5576 250.666 21.7862 250.666 20.89V5.00042H256.747V21.0667C256.747 23.9611 256.207 26.187 255.127 27.7445C254.047 29.3018 252.174 30.0805 249.508 30.0805C246.885 30.0805 245.012 29.3165 243.889 27.7885C242.767 26.2458 242.205 24.0052 242.205 21.0667ZM279.455 5.00038V29.5958H271.627L269.459 14.3227H269.185V29.5958H263.882V5.00038H272.089L273.878 19.6779H274.131V5.00038H279.455Z" fill="#D5C4BD"/>
<path d="M117.657 39.4111C120.069 39.4111 121.932 40.2052 123.244 41.7935C124.57 43.3671 125.324 46.0142 125.508 49.7351C125.522 50.1174 125.536 50.6175 125.55 51.2351C125.564 51.8381 125.564 52.4484 125.55 53.0661C125.536 53.6837 125.522 54.2279 125.508 54.6985C125.324 58.4044 124.57 61.0442 123.244 62.6175C121.932 64.2058 120.069 65 117.657 65C115.188 65 113.298 64.1911 111.986 62.5735C110.688 60.9558 109.947 58.316 109.764 54.6544C109.736 54.2574 109.722 53.7647 109.722 53.1765C109.708 52.5735 109.708 51.9632 109.722 51.3455C109.722 50.7279 109.736 50.1984 109.764 49.7572C109.947 46.0954 110.688 43.4556 111.986 41.8382C113.298 40.2205 115.188 39.4111 117.657 39.4111ZM116.028 50.0657V54.3452C116.028 56.1541 116.176 57.4115 116.472 58.1174C116.768 58.8233 117.163 59.1763 117.657 59.1763C118.137 59.1763 118.518 58.8307 118.8 58.1395C119.082 57.4483 119.223 56.1835 119.223 54.3453V50.0658C119.223 48.2275 119.082 46.9628 118.8 46.2716C118.518 45.5951 118.137 45.2568 117.657 45.2568C117.163 45.2568 116.768 45.6024 116.472 46.2936C116.176 46.9995 116.028 48.2568 116.028 50.0657ZM138.437 55.4261V64.5145H132.343V39.8959H144.066V45.6975H138.437V49.9329H143.918V55.4257L138.437 55.4261ZM156.784 55.4261V64.5145H150.668V39.8959H162.412V45.6975H156.783V49.9329H162.243V55.4257L156.784 55.4261ZM180.759 64.5145H169.015V39.8959H180.759V45.6314H175.13V49.3373H180.23V54.786H175.13V58.7788H180.759V64.5145ZM187.509 39.8959H195.445C196.813 39.8959 197.991 40.168 198.979 40.7121C199.952 41.2709 200.707 42.168 201.243 43.4033C201.765 44.6533 202.026 46.3372 202.026 48.4549C202.026 50.0726 201.857 51.4255 201.518 52.5138C201.18 53.6168 200.714 54.5065 200.122 55.183V55.8007L203.021 64.5145H196.291L194.175 56.9924H193.604V64.5145H187.51L187.509 39.8959ZM193.604 45.4549V51.4992H194.281C194.944 51.4992 195.381 51.1904 195.593 50.5727C195.804 49.955 195.91 49.2491 195.91 48.4549C195.91 47.4108 195.797 46.6534 195.572 46.1828C195.332 45.6975 194.901 45.4549 194.281 45.4549H193.604ZM209.093 39.8959H215.209V64.5145H209.093V39.8959ZM238.211 39.8959V64.5145H230.318L228.138 49.2269H227.884V64.5145H222.552V39.8959H230.783L232.603 54.5872H232.835V39.8959H238.211ZM252.6 50.7048H260.408C260.436 51.7784 260.45 52.7269 260.45 53.5505C260.465 54.3741 260.465 55.2197 260.45 56.0873C260.422 57.6904 260.126 59.1683 259.562 60.5213C258.983 61.8743 258.144 62.9626 257.043 63.7861C255.957 64.595 254.596 64.9993 252.959 64.9993C250.519 64.9993 248.636 64.1464 247.309 62.4405C245.983 60.7199 245.229 58.0065 245.045 54.3005C244.975 53.0651 244.975 51.6681 245.045 50.1092C245.2 46.4473 245.948 43.7487 247.288 42.0133C248.628 40.278 250.54 39.4104 253.023 39.4104C254.631 39.4104 255.964 39.7927 257.022 40.5575C258.066 41.3222 258.87 42.359 259.435 43.6679C259.999 44.9767 260.324 46.4253 260.408 48.0136H254.208C254.208 47.1312 254.095 46.44 253.869 45.94C253.644 45.4253 253.305 45.1679 252.854 45.1679C252.431 45.1679 252.071 45.5209 251.775 46.2268C251.464 46.9327 251.309 48.2121 251.309 50.0651V54.6976C251.337 55.933 251.429 56.8815 251.584 57.5433C251.739 58.2051 251.944 58.661 252.198 58.911C252.466 59.1463 252.755 59.2639 253.065 59.2639C253.531 59.2639 253.898 58.9845 254.166 58.4257C254.434 57.8668 254.568 57.1242 254.568 56.1977V55.8006H252.6L252.6 50.7048Z" fill="#D5C4BD"/>
</svg>
